<?xml version="1.0" standalone="no"?>
<!DOCTYPE svg PUBLIC "-//W3C//DTD SVG 20010904//EN"
 "http://www.w3.org/TR/2001/REC-SVG-20010904/DTD/svg10.dtd">
<svg version="1.0" xmlns="http://www.w3.org/2000/svg"
 width="2940.000000pt" height="1600.000000pt" viewBox="0 0 2940.000000 1600.000000"
 preserveAspectRatio="xMidYMid meet">
<metadata>
Created by potrace 1.15, written by Peter Selinger 2001-2017
</metadata>
<g transform="translate(0.000000,1600.000000) scale(0.100000,-0.100000)"
fill="#000000" stroke="none">
<path d="M15440 13605 c-70 -23 -153 -96 -237 -208 -319 -429 -797 -1294
-1248 -2259 -81 -175 -152 -315 -156 -312 -5 3 -9 16 -9 30 0 13 -10 44 -21
69 -57 121 -196 162 -326 97 -63 -33 -96 -65 -139 -138 -29 -49 -37 -55 -29
-21 3 12 15 105 26 207 39 339 36 1346 -4 1441 -8 19 -32 51 -55 71 -113 102
-222 105 -306 7 -37 -44 -129 -217 -202 -382 -35 -80 -42 -90 -80 -106 -68
-31 -92 -72 -114 -202 -11 -63 -29 -155 -42 -206 -19 -81 -20 -97 -9 -134 26
-87 117 -141 201 -119 69 19 98 53 176 215 l72 150 1 -87 c2 -220 -28 -495
-104 -958 -58 -348 -91 -575 -110 -739 -14 -119 -14 -140 -1 -185 29 -99 132
-170 246 -170 73 0 109 15 160 66 31 30 32 31 25 8 -39 -121 -112 -452 -125
-567 -17 -142 -17 -251 -1 -297 17 -49 73 -112 123 -137 62 -32 117 -34 198
-10 100 31 159 86 196 184 91 245 237 565 629 1387 193 405 632 1267 641 1257
1 -1 -24 -117 -57 -257 -99 -433 -378 -1940 -733 -3965 -132 -751 -115 -641
-201 -1247 -134 -935 -204 -1845 -205 -2670 0 -320 2 -366 30 -610 28 -244 33
-275 80 -427 132 -432 333 -629 645 -635 67 -1 89 3 135 25 133 63 204 198
178 339 -12 68 -29 101 -81 157 -44 48 -88 74 -153 92 -35 9 -43 17 -62 58
-12 27 -35 100 -51 163 -90 344 -80 1390 23 2470 80 839 158 1329 620 3901
439 2445 607 3254 836 4024 27 93 50 186 50 206 0 61 -38 226 -64 277 -28 55
-76 101 -139 134 -54 27 -164 34 -227 13z"/>
<path d="M5781 13249 c-58 -11 -123 -51 -158 -96 -40 -52 -131 -200 -313 -508
-885 -1503 -1113 -1829 -1739 -2485 -97 -102 -289 -313 -426 -470 -578 -660
-727 -821 -970 -1045 -218 -200 -248 -224 -432 -343 -198 -127 -199 -128 -334
-165 -111 -31 -150 -37 -229 -37 -118 0 -199 13 -257 41 -79 38 -178 6 -218
-71 -19 -37 -19 -113 0 -150 15 -28 81 -87 121 -108 37 -19 196 -41 349 -48
l150 -6 185 47 184 46 234 142 c228 138 242 149 496 368 268 232 444 409 971
979 109 118 327 346 485 505 581 589 787 839 1207 1468 139 208 253 377 253
375 0 -14 -117 -605 -199 -1008 -108 -535 -227 -1081 -485 -2230 -90 -404
-241 -1084 -335 -1510 -214 -975 -200 -909 -341 -1580 -66 -311 -122 -575
-125 -588 -3 -12 -10 -22 -16 -22 -24 0 -289 124 -308 144 -11 11 -56 79 -100
149 -110 174 -164 242 -225 282 -128 85 -265 68 -379 -47 -60 -60 -87 -122
-87 -200 0 -50 51 -224 78 -268 9 -14 71 -84 137 -155 120 -131 120 -131 187
-280 97 -219 263 -639 294 -747 35 -122 44 -253 31 -458 -21 -333 25 -483 175
-566 48 -26 62 -29 148 -29 87 0 100 3 149 30 110 61 146 127 195 355 14 63
61 268 105 455 44 187 96 422 117 521 l37 181 261 6 c235 4 270 7 356 30 l95
24 34 -30 c47 -40 80 -53 184 -67 99 -14 145 -7 229 36 28 14 52 23 55 20 3
-3 9 -83 14 -178 5 -95 20 -307 34 -472 l26 -299 -164 -161 c-174 -172 -222
-237 -272 -370 -33 -88 -56 -239 -58 -386 -4 -214 51 -316 201 -375 60 -24 81
-27 139 -23 73 5 144 35 202 84 36 30 168 182 248 284 128 165 204 404 219
693 l6 122 152 150 c157 156 265 278 466 525 223 273 337 446 561 849 68 123
125 217 126 210 1 -8 7 -151 13 -319 21 -647 75 -986 187 -1187 43 -77 117
-169 165 -204 100 -73 240 -118 368 -119 55 0 245 62 296 96 74 51 207 181
271 266 62 84 67 88 104 88 49 0 112 21 219 73 47 23 90 39 95 38 69 -24 175
-34 470 -41 635 -17 1001 -21 1114 -13 l114 9 41 -29 c215 -150 305 -173 573
-147 147 14 193 30 244 87 47 51 62 100 57 174 -5 70 -40 127 -107 174 l-43
30 -171 -3 -171 -2 -78 60 c-43 34 -113 78 -156 98 l-77 37 -379 2 c-208 1
-483 7 -610 13 -127 6 -316 15 -421 19 -179 7 -195 9 -285 40 -52 18 -96 35
-98 36 -2 2 25 61 61 132 79 159 110 250 110 324 -2 149 -121 269 -269 269
-93 0 -147 -23 -215 -92 -48 -50 -65 -78 -105 -171 -144 -345 -412 -788 -548
-907 l-35 -31 -15 53 c-8 29 -23 105 -33 168 -15 102 -17 197 -18 815 0 385 4
925 9 1200 l9 500 144 375 c370 963 582 1642 782 2505 104 452 105 455 105
630 1 155 0 162 -27 216 -33 68 -119 152 -184 181 -77 34 -165 35 -263 4 -196
-64 -332 -207 -513 -539 -184 -337 -297 -632 -407 -1068 -67 -265 -86 -359
-139 -700 -51 -332 -65 -455 -90 -784 -17 -214 -36 -511 -42 -660 l-12 -270
-54 -145 c-238 -633 -665 -1502 -909 -1850 -123 -175 -431 -566 -440 -558 -13
14 -54 684 -54 896 0 102 -3 120 -31 194 -40 102 -93 159 -170 182 -69 21 -87
20 -162 -5 -77 -26 -116 -55 -175 -130 l-45 -59 -29 72 c-35 91 -74 139 -140
172 -57 28 -151 35 -205 15 -85 -31 -159 -123 -208 -255 l-26 -71 -76 -7
c-128 -10 -313 -7 -313 5 0 23 235 1118 431 2014 180 819 293 1349 410 1925
147 725 398 2120 524 2920 92 585 153 936 189 1100 19 85 40 200 47 255 11 87
10 107 -4 155 -44 146 -186 238 -326 209z"/>
<path d="M16315 12673 c-49 -25 -123 -103 -170 -178 -24 -39 -78 -143 -119
-232 -141 -305 -197 -494 -198 -664 -1 -89 2 -102 32 -168 34 -73 81 -125 142
-157 42 -22 139 -43 198 -44 25 0 63 -9 85 -20 134 -68 289 52 261 203 -3 18
-27 62 -52 96 -63 87 -105 105 -223 96 l-87 -7 7 69 c14 122 61 264 166 503
64 144 72 158 130 223 72 82 79 167 19 235 -53 60 -129 78 -191 45z"/>
<path d="M18532 12499 c-58 -29 -127 -130 -237 -349 -86 -169 -92 -178 -180
-265 -132 -130 -291 -228 -450 -277 -219 -69 -265 -53 -358 127 -62 121 -77
190 -90 418 -11 180 -15 210 -33 234 -73 98 -213 96 -275 -4 -23 -37 -24 -43
-22 -258 1 -210 3 -225 31 -335 38 -144 103 -280 184 -390 59 -79 69 -88 158
-135 l95 -50 127 -3 c120 -4 133 -2 256 32 71 20 134 36 140 36 6 0 5 -17 -4
-47 -24 -78 -128 -591 -203 -999 -88 -479 -198 -993 -356 -1664 -240 -1021
-333 -1515 -590 -3118 -63 -398 -120 -746 -126 -774 l-11 -50 -67 65 c-82 81
-236 182 -309 203 -141 41 -291 -45 -375 -216 -27 -55 -35 -205 -17 -338 14
-108 97 -531 150 -769 86 -381 196 -709 262 -781 52 -56 169 -141 219 -157 61
-21 177 -16 248 9 104 38 202 148 234 262 9 32 23 115 32 184 14 108 112 629
120 638 2 2 20 -1 41 -7 22 -6 113 -20 204 -31 91 -12 203 -31 250 -43 110
-28 302 -29 560 -4 164 16 207 25 380 74 274 79 541 201 828 380 57 35 105 63
106 61 2 -2 40 -75 86 -163 104 -202 211 -373 312 -497 77 -95 81 -98 191
-154 l112 -56 155 5 c152 4 158 5 285 49 206 71 447 202 650 352 8 6 33 5 69
-4 41 -10 78 -11 143 -4 233 24 466 7 1283 -92 272 -33 293 -34 445 -25 88 6
212 17 275 25 63 8 162 20 220 26 58 6 141 20 185 31 86 22 236 87 300 130 46
31 89 103 100 166 10 61 -17 144 -62 194 -88 97 -188 109 -342 40 -103 -46
-121 -49 -426 -76 -229 -20 -416 -19 -669 5 -202 18 -404 35 -826 66 -210 15
-384 17 -467 5 -43 -6 -62 -3 -105 15 -29 12 -85 26 -123 29 -94 9 -163 -15
-262 -92 -257 -200 -520 -338 -675 -357 -59 -7 -59 -7 -177 169 -108 160 -214
354 -276 502 -34 82 -56 121 -81 143 -44 38 -137 85 -199 101 -97 25 -211 -21
-533 -214 -114 -69 -261 -152 -328 -185 l-121 -61 39 97 c56 140 71 205 66
287 -6 87 -31 138 -97 197 -88 79 -155 99 -263 79 -83 -16 -108 -26 -203 -85
-316 -194 -463 -348 -540 -563 -10 -29 -22 -53 -26 -53 -28 0 -286 44 -331 57
-50 13 -57 18 -53 37 19 86 75 476 135 941 219 1698 304 2240 509 3240 127
624 245 1270 316 1735 103 683 171 1025 232 1180 47 117 205 424 242 470 100
121 206 368 206 477 0 52 -5 68 -30 105 -58 83 -172 112 -263 67z"/>
</g>
</svg>
